<svg width="1891" height="270" viewBox="0 0 1891 270" fill="none" xmlns="http://www.w3.org/2000/svg">
<g filter="url(#filter0_di_1_19)">
<circle cx="135" cy="131" r="131" fill="url(#paint0_linear_1_19)"/>
<circle cx="135" cy="131" r="130" stroke="#833838" stroke-width="2"/>
</g>
<g filter="url(#filter1_i_1_19)">
<mask id="path-3-inside-1_1_19" fill="white">
<path d="M212.975 159.852C206.416 177.776 193.844 192.872 177.403 202.566C160.961 212.261 141.667 215.954 122.807 213.018C103.948 210.081 86.6898 200.696 73.9741 186.462C61.2584 172.228 53.8716 154.025 53.0724 134.955C52.2731 115.884 58.1109 97.1272 69.591 81.8788C81.0712 66.6305 97.4833 55.8344 116.031 51.3301C134.579 46.8259 154.114 48.8921 171.309 57.1769C188.505 65.4616 202.295 79.4521 210.331 96.7647L187.511 107.358C181.925 95.3248 172.34 85.6008 160.389 79.8426C148.438 74.0844 134.86 72.6483 121.968 75.7789C109.077 78.9095 97.6699 86.4132 89.6908 97.0114C81.7116 107.61 77.6542 120.647 78.2097 133.901C78.7651 147.155 83.8992 159.807 92.7372 169.701C101.575 179.594 113.57 186.117 126.678 188.158C139.786 190.199 153.197 187.632 164.624 180.894C176.052 174.156 184.789 163.664 189.348 151.206L212.975 159.852Z"/>
</mask>
<path d="M212.975 159.852C206.416 177.776 193.844 192.872 177.403 202.566C160.961 212.261 141.667 215.954 122.807 213.018C103.948 210.081 86.6898 200.696 73.9741 186.462C61.2584 172.228 53.8716 154.025 53.0724 134.955C52.2731 115.884 58.1109 97.1272 69.591 81.8788C81.0712 66.6305 97.4833 55.8344 116.031 51.3301C134.579 46.8259 154.114 48.8921 171.309 57.1769C188.505 65.4616 202.295 79.4521 210.331 96.7647L187.511 107.358C181.925 95.3248 172.34 85.6008 160.389 79.8426C148.438 74.0844 134.86 72.6483 121.968 75.7789C109.077 78.9095 97.6699 86.4132 89.6908 97.0114C81.7116 107.61 77.6542 120.647 78.2097 133.901C78.7651 147.155 83.8992 159.807 92.7372 169.701C101.575 179.594 113.57 186.117 126.678 188.158C139.786 190.199 153.197 187.632 164.624 180.894C176.052 174.156 184.789 163.664 189.348 151.206L212.975 159.852Z" stroke="white" stroke-width="40" mask="url(#path-3-inside-1_1_19)"/>
</g>
<path d="M413.363 197.28C411.203 198.72 408.263 200.34 404.543 202.14C400.823 203.94 396.443 205.44 391.403 206.64C386.483 207.84 381.083 208.44 375.203 208.44C365.123 208.32 356.003 206.52 347.843 203.04C339.803 199.56 332.963 194.82 327.323 188.82C321.683 182.82 317.303 175.92 314.183 168.12C311.183 160.2 309.683 151.8 309.683 142.92C309.683 133.2 311.243 124.26 314.363 116.1C317.603 107.82 322.103 100.68 327.863 94.68C333.623 88.56 340.403 83.82 348.203 80.46C356.123 77.1 364.763 75.42 374.123 75.42C381.923 75.42 389.003 76.5 395.363 78.66C401.723 80.7 407.183 83.16 411.743 86.04L404.723 102.24C401.123 99.84 396.743 97.56 391.582 95.4C386.543 93.24 380.903 92.16 374.663 92.16C368.303 92.16 362.303 93.42 356.663 95.94C351.023 98.46 346.043 102 341.723 106.56C337.403 111.12 333.983 116.46 331.463 122.58C329.063 128.58 327.863 135.06 327.863 142.02C327.863 149.1 328.943 155.7 331.103 161.82C333.383 167.82 336.563 173.04 340.643 177.48C344.843 181.92 349.883 185.4 355.763 187.92C361.643 190.44 368.243 191.7 375.563 191.7C382.163 191.7 388.043 190.68 393.203 188.64C398.363 186.6 402.623 184.32 405.983 181.8L413.363 197.28ZM477.323 76.86C483.923 76.86 489.983 77.76 495.503 79.56C501.143 81.24 506.003 83.82 510.083 87.3C514.283 90.66 517.523 94.86 519.803 99.9C522.203 104.82 523.403 110.58 523.403 117.18C523.403 122.34 522.623 127.38 521.063 132.3C519.623 137.22 517.163 141.72 513.683 145.8C510.203 149.76 505.643 153 500.003 155.52C494.483 157.92 487.643 159.12 479.483 159.12H460.223V207H442.763V76.86H477.323ZM479.123 142.38C484.283 142.38 488.543 141.6 491.903 140.04C495.383 138.48 498.083 136.5 500.003 134.1C501.923 131.58 503.303 128.88 504.143 126C504.983 123.12 505.403 120.42 505.403 117.9C505.403 115.26 504.923 112.56 503.963 109.8C503.123 106.92 501.683 104.28 499.643 101.88C497.723 99.48 495.143 97.5 491.903 95.94C488.783 94.38 484.943 93.6 480.383 93.6H460.223V142.38H479.123ZM500.543 152.28L534.563 207H514.403L479.843 152.82L500.543 152.28ZM561.415 76.86H646.015V93.6H578.875V133.2H638.815V149.94H578.875V190.26H648.535V207H561.415V76.86ZM665.877 207L722.757 71.46H723.837L780.537 207H760.557L718.077 98.82L730.497 90.72L682.977 207H665.877ZM699.177 157.68H747.597L753.357 172.8H694.137L699.177 157.68ZM785.313 76.86H871.713V93.6H836.793V207H819.333V93.6H785.313V76.86ZM899.443 76.86H916.903V207H899.443V76.86ZM946.186 142.02C946.186 133.02 947.866 124.56 951.226 116.64C954.706 108.6 959.506 101.52 965.626 95.4C971.746 89.16 978.766 84.3 986.686 80.82C994.726 77.22 1003.37 75.42 1012.61 75.42C1021.73 75.42 1030.25 77.22 1038.17 80.82C1046.21 84.3 1053.29 89.16 1059.41 95.4C1065.65 101.52 1070.51 108.6 1073.99 116.64C1077.47 124.56 1079.21 133.02 1079.21 142.02C1079.21 151.26 1077.47 159.9 1073.99 167.94C1070.51 175.98 1065.65 183.06 1059.41 189.18C1053.29 195.18 1046.21 199.92 1038.17 203.4C1030.25 206.76 1021.73 208.44 1012.61 208.44C1003.37 208.44 994.726 206.76 986.686 203.4C978.766 200.04 971.746 195.36 965.626 189.36C959.506 183.36 954.706 176.34 951.226 168.3C947.866 160.26 946.186 151.5 946.186 142.02ZM964.186 142.2C964.186 149.04 965.446 155.46 967.966 161.46C970.486 167.34 973.966 172.56 978.406 177.12C982.846 181.68 988.006 185.28 993.886 187.92C999.766 190.44 1006.13 191.7 1012.97 191.7C1019.69 191.7 1025.99 190.44 1031.87 187.92C1037.75 185.28 1042.85 181.68 1047.17 177.12C1051.49 172.56 1054.91 167.34 1057.43 161.46C1059.95 155.46 1061.21 148.98 1061.21 142.02C1061.21 135.18 1059.95 128.76 1057.43 122.76C1054.91 116.64 1051.43 111.3 1046.99 106.74C1042.55 102.18 1037.39 98.64 1031.51 96.12C1025.63 93.48 1019.33 92.16 1012.61 92.16C1005.77 92.16 999.406 93.48 993.526 96.12C987.646 98.76 982.486 102.36 978.046 106.92C973.606 111.48 970.186 116.82 967.786 122.94C965.386 128.94 964.186 135.36 964.186 142.2ZM1221.3 211.14L1120.68 109.08L1125.72 110.34L1126.08 207H1108.62V72.9H1109.52L1209.06 175.32L1204.92 174.42L1204.56 76.86H1221.84V211.14H1221.3ZM1361.15 195.84C1359.35 197.4 1356.83 198.96 1353.59 200.52C1350.35 201.96 1346.75 203.28 1342.79 204.48C1338.95 205.68 1334.93 206.64 1330.73 207.36C1326.65 208.08 1322.81 208.44 1319.21 208.44C1308.77 208.44 1299.35 206.82 1290.95 203.58C1282.67 200.34 1275.53 195.84 1269.53 190.08C1263.65 184.32 1259.09 177.54 1255.85 169.74C1252.73 161.94 1251.17 153.48 1251.17 144.36C1251.17 133.56 1252.91 123.9 1256.39 115.38C1259.99 106.74 1264.85 99.48 1270.97 93.6C1277.21 87.6 1284.35 83.1 1292.39 80.1C1300.43 76.98 1308.95 75.42 1317.95 75.42C1325.51 75.42 1332.53 76.32 1339.01 78.12C1345.49 79.92 1351.19 82.2 1356.11 84.96L1350.17 100.98C1347.77 99.54 1344.77 98.22 1341.17 97.02C1337.69 95.82 1334.09 94.86 1330.37 94.14C1326.65 93.3 1323.17 92.88 1319.93 92.88C1312.25 92.88 1305.29 94.08 1299.05 96.48C1292.81 98.76 1287.47 102.12 1283.03 106.56C1278.59 110.88 1275.17 116.16 1272.77 122.4C1270.37 128.52 1269.17 135.42 1269.17 143.1C1269.17 150.18 1270.37 156.66 1272.77 162.54C1275.17 168.42 1278.59 173.52 1283.03 177.84C1287.47 182.04 1292.75 185.34 1298.87 187.74C1305.11 190.02 1311.95 191.16 1319.39 191.16C1323.83 191.16 1328.21 190.74 1332.53 189.9C1336.85 188.94 1340.57 187.62 1343.69 185.94V160.02H1317.77V143.28H1361.15V195.84ZM1381.48 207L1438.36 71.46H1439.44L1496.14 207H1476.16L1433.68 98.82L1446.1 90.72L1398.58 207H1381.48ZM1414.78 157.68H1463.2L1468.96 172.8H1409.74L1414.78 157.68ZM1520.65 207V72.72H1520.83L1589.05 169.56L1581.67 168.12L1649.71 72.72H1650.07V207H1632.79V112.32L1633.87 121.14L1584.73 190.62H1584.37L1534.51 121.14L1537.57 113.04V207H1520.65ZM1687.47 76.86H1772.07V93.6H1704.93V133.2H1764.87V149.94H1704.93V190.26H1774.59V207H1687.47V76.86ZM1872.21 100.08C1867.77 97.8 1862.91 95.82 1857.63 94.14C1852.35 92.46 1847.19 91.62 1842.15 91.62C1835.19 91.62 1829.61 93.24 1825.41 96.48C1821.33 99.72 1819.29 104.04 1819.29 109.44C1819.29 113.52 1820.61 117 1823.25 119.88C1825.89 122.64 1829.37 125.04 1833.69 127.08C1838.01 129.12 1842.51 131.04 1847.19 132.84C1851.27 134.4 1855.29 136.14 1859.25 138.06C1863.21 139.98 1866.75 142.38 1869.87 145.26C1873.11 148.14 1875.63 151.68 1877.43 155.88C1879.35 160.08 1880.31 165.3 1880.31 171.54C1880.31 178.38 1878.57 184.62 1875.09 190.26C1871.73 195.9 1866.87 200.34 1860.51 203.58C1854.15 206.82 1846.59 208.44 1837.83 208.44C1832.07 208.44 1826.55 207.78 1821.27 206.46C1816.11 205.14 1811.31 203.46 1806.87 201.42C1802.43 199.26 1798.47 197.04 1794.99 194.76L1802.73 181.08C1805.61 183.12 1808.91 185.1 1812.63 187.02C1816.35 188.82 1820.25 190.32 1824.33 191.52C1828.41 192.6 1832.37 193.14 1836.21 193.14C1840.29 193.14 1844.31 192.42 1848.27 190.98C1852.35 189.42 1855.71 187.08 1858.35 183.96C1860.99 180.84 1862.31 176.7 1862.31 171.54C1862.31 167.1 1861.11 163.44 1858.71 160.56C1856.43 157.56 1853.37 155.04 1849.53 153C1845.69 150.84 1841.61 148.92 1837.29 147.24C1833.21 145.68 1829.07 144 1824.87 142.2C1820.67 140.28 1816.77 138 1813.17 135.36C1809.57 132.6 1806.69 129.24 1804.53 125.28C1802.37 121.32 1801.29 116.52 1801.29 110.88C1801.29 104.04 1802.91 98.1 1806.15 93.06C1809.51 87.9 1814.07 83.88 1819.83 81C1825.59 78 1832.19 76.38 1839.63 76.14C1848.03 76.14 1855.41 77.16 1861.77 79.2C1868.25 81.24 1873.95 83.76 1878.87 86.76L1872.21 100.08Z" fill="#CB4040"/>
<defs>
<filter id="filter0_di_1_19" x="0" y="0" width="270" height="270" filterUnits="userSpaceOnUse" color-interpolation-filters="sRGB">
<feFlood flood-opacity="0" result="BackgroundImageFix"/>
<feColorMatrix in="SourceAlpha" type="matrix" values="0 0 0 0 0 0 0 0 0 0 0 0 0 0 0 0 0 0 127 0" result="hardAlpha"/>
<feOffset dy="4"/>
<feGaussianBlur stdDeviation="2"/>
<feComposite in2="hardAlpha" operator="out"/>
<feColorMatrix type="matrix" values="0 0 0 0 0 0 0 0 0 0 0 0 0 0 0 0 0 0 0.25 0"/>
<feBlend mode="normal" in2="BackgroundImageFix" result="effect1_dropShadow_1_19"/>
<feBlend mode="normal" in="SourceGraphic" in2="effect1_dropShadow_1_19" result="shape"/>
<feColorMatrix in="SourceAlpha" type="matrix" values="0 0 0 0 0 0 0 0 0 0 0 0 0 0 0 0 0 0 127 0" result="hardAlpha"/>
<feOffset dy="4"/>
<feGaussianBlur stdDeviation="2"/>
<feComposite in2="hardAlpha" operator="arithmetic" k2="-1" k3="1"/>
<feColorMatrix type="matrix" values="0 0 0 0 0 0 0 0 0 0 0 0 0 0 0 0 0 0 0.25 0"/>
<feBlend mode="normal" in2="shape" result="effect2_innerShadow_1_19"/>
</filter>
<filter id="filter1_i_1_19" x="53" y="48.9999" width="159.975" height="169" filterUnits="userSpaceOnUse" color-interpolation-filters="sRGB">
<feFlood flood-opacity="0" result="BackgroundImageFix"/>
<feBlend mode="normal" in="SourceGraphic" in2="BackgroundImageFix" result="shape"/>
<feColorMatrix in="SourceAlpha" type="matrix" values="0 0 0 0 0 0 0 0 0 0 0 0 0 0 0 0 0 0 127 0" result="hardAlpha"/>
<feOffset dy="4"/>
<feGaussianBlur stdDeviation="2"/>
<feComposite in2="hardAlpha" operator="arithmetic" k2="-1" k3="1"/>
<feColorMatrix type="matrix" values="0 0 0 0 0 0 0 0 0 0 0 0 0 0 0 0 0 0 0.25 0"/>
<feBlend mode="normal" in2="shape" result="effect1_innerShadow_1_19"/>
</filter>
<linearGradient id="paint0_linear_1_19" x1="266" y1="62" x2="23.5" y2="188" gradientUnits="userSpaceOnUse">
<stop stop-color="#FF0000"/>
<stop offset="1" stop-color="#FFADAD"/>
</linearGradient>
</defs>
</svg>
